<?xml version="1.0" encoding="UTF-8"?>
<svg id="Calque_3" data-name="Calque 3" xmlns="http://www.w3.org/2000/svg" viewBox="0 0 812.77 812.77" width="350.8" height="350.8">
  <path class="cls-1" d="M364.76,117.66c-3.89,6.9-14.13,14.15-19.58,9.12-4.34-4.01,1.49-9.66,7.08-13.02,9.81-5.89,4.79-24.05-10.24-24.9s-35.2,14.45-26.39,40.37c8.81,25.92,36.42,22.98,50.43,7.12,15.54-17.59,32.24-14.27,37.55.37,6.78,18.68,32.72,22.7,50.98,13.39,28.38-14.47,59.37-58.82,13.79-106.96-32.92-34.77-90.02-32.98-112.64-24.65-22.49,8.28-17.57,26.25-6.86,25.74,6.07-.29,17.56-3.91,23.03,3.38,6.19,8.24-17.04,4.61-15.41,19.75.63,5.87,10.34,17.48,34.72,7.93,25.5-9.99,14.81-28.73-5.5-34.31-18.61-5.12-15.75-12.94-6.37-14.39,9.39-1.44,38.41-2.8,58.31,21.66,18.29,22.5,14.73,54.36,5.2,66.01-8.84,10.8-30.97,11.63-29.95-2.66,1.03-14.52-8.57-19.74-18.52-17.61-10.32,2.21-22.13,10.36-29.63,23.66Z" transform="translate(-750, 231) scale(3)"/>
</svg>
